<?xml version="1.0" standalone="no"?><!DOCTYPE svg PUBLIC "-//W3C//DTD SVG 1.1//EN" "http://www.w3.org/Graphics/SVG/1.1/DTD/svg11.dtd"><svg t="1669373425862" class="icon" viewBox="0 0 1024 1024" version="1.1" xmlns="http://www.w3.org/2000/svg" p-id="17246" xmlns:xlink="http://www.w3.org/1999/xlink" width="200" height="200"><path d="M935.812877 88.243078h-87.685776V29.784188a29.226886 29.226886 0 1 0-58.453771 0v58.45889H234.331789V29.784188a29.226886 29.226886 0 1 0-58.453771 0v58.45889H88.187123C39.762336 88.243078 0.501347 127.498948 0.501347 175.923735v759.945098c0 48.429907 39.260989 87.685776 87.685776 87.685776h847.625754c48.424787 0 87.685776-39.260989 87.685776-87.685776V175.928854c0-48.424787-39.260989-87.685776-87.685776-87.685776z m29.226886 847.625755a29.232005 29.232005 0 0 1-29.226886 29.232005H88.187123a29.232005 29.232005 0 0 1-29.226886-29.232005V351.300406h906.079526v584.568427z m0-643.027317H58.960237V175.928854a29.226886 29.226886 0 0 1 29.226886-29.226885h87.685776v29.226885a29.226886 29.226886 0 1 0 58.453771 0v-29.226885h555.341541v29.226885a29.226886 29.226886 0 1 0 58.453771 0v-29.226885h87.685776a29.226886 29.226886 0 0 1 29.226885 29.226885V292.841516z" p-id="17247"></path><path d="M512 526.671958c24.179117 0 43.842888-19.663771 43.842888-43.842888A43.842888 43.842888 0 0 0 512 438.986182a43.807052 43.807052 0 0 0-43.842888 43.842888c0 24.173998 19.597218 43.842888 43.842888 43.842888zM745.825323 877.409942c24.184237 0 43.842888-19.663771 43.842888-43.842888a43.842888 43.842888 0 0 0-43.842888-43.842888 43.801932 43.801932 0 0 0-43.842888 43.842888c0.005119 24.179117 19.602337 43.842888 43.842888 43.842888zM512 702.03839c24.179117 0 43.842888-19.658651 43.842888-43.842888 0-24.240551-19.663771-43.837769-43.842888-43.837768a43.801932 43.801932 0 0 0-43.842888 43.837768A43.842888 43.842888 0 0 0 512 702.03839zM745.825323 526.671958c24.184237 0 43.842888-19.663771 43.842888-43.842888a43.842888 43.842888 0 0 0-43.842888-43.842888 43.807052 43.807052 0 0 0-43.842888 43.842888c0.005119 24.173998 19.602337 43.842888 43.842888 43.842888zM745.825323 702.03839c24.184237 0 43.842888-19.658651 43.842888-43.842888 0-24.240551-19.663771-43.837769-43.842888-43.837768a43.801932 43.801932 0 0 0-43.842888 43.837768c0.005119 24.184237 19.602337 43.842888 43.842888 43.842888zM512 877.409942c24.179117 0 43.842888-19.663771 43.842888-43.842888a43.842888 43.842888 0 0 0-43.842888-43.842888 43.801932 43.801932 0 0 0-43.842888 43.842888 43.842888 43.842888 0 0 0 43.842888 43.842888zM278.174677 877.409942c24.179117 0 43.842888-19.663771 43.842888-43.842888a43.842888 43.842888 0 0 0-43.842888-43.842888 43.801932 43.801932 0 0 0-43.842888 43.842888 43.842888 43.842888 0 0 0 43.842888 43.842888zM278.174677 702.03839c24.179117 0 43.842888-19.658651 43.842888-43.842888 0-24.240551-19.663771-43.837769-43.842888-43.837768a43.801932 43.801932 0 0 0-43.842888 43.837768 43.842888 43.842888 0 0 0 43.842888 43.842888zM278.174677 526.671958c24.179117 0 43.842888-19.663771 43.842888-43.842888a43.842888 43.842888 0 0 0-43.842888-43.842888 43.807052 43.807052 0 0 0-43.842888 43.842888c0 24.173998 19.597218 43.842888 43.842888 43.842888z" p-id="17248"></path></svg>