<?xml version="1.0" standalone="no"?><!DOCTYPE svg PUBLIC "-//W3C//DTD SVG 1.1//EN" "http://www.w3.org/Graphics/SVG/1.1/DTD/svg11.dtd"><svg t="1669282820029" class="icon" viewBox="0 0 1024 1024" version="1.1" xmlns="http://www.w3.org/2000/svg" p-id="16764" xmlns:xlink="http://www.w3.org/1999/xlink" width="200" height="200"><path d="M691.2 128H332.8c-70.4 0-128 57.6-128 128v320c0 14.08 11.52 25.6 25.6 25.6h563.2c14.08 0 25.6-11.52 25.6-25.6V256c0-70.4-57.6-128-128-128zM256 256c0-42.24 34.56-76.8 76.8-76.8h358.4c42.24 0 76.8 34.56 76.8 76.8v220.16c-25.6-25.6-60.16-40.96-98.56-40.96-69.12 0-126.72 49.92-138.24 115.2H256V256z m327.68 294.4c10.24-37.12 44.8-64 85.76-64s75.52 26.88 85.76 64H583.68z" p-id="16765"></path><path d="M947.2 268.8v-89.6c0-98.56-80.64-179.2-179.2-179.2H256C157.44 0 76.8 80.64 76.8 179.2v89.6c-42.24 0-76.8 34.56-76.8 76.8v76.8c0 42.24 34.56 76.8 76.8 76.8v371.2c0 14.08 11.52 25.6 25.6 25.6h51.2v51.2c0 42.24 34.56 76.8 76.8 76.8h51.2c42.24 0 76.8-34.56 76.8-76.8v-51.2h307.2v51.2c0 42.24 34.56 76.8 76.8 76.8h51.2c42.24 0 76.8-34.56 76.8-76.8v-51.2h51.2c14.08 0 25.6-11.52 25.6-25.6V499.2c42.24 0 76.8-34.56 76.8-76.8v-76.8c0-42.24-34.56-76.8-76.8-76.8zM51.2 422.4v-76.8c0-14.08 11.52-25.6 25.6-25.6v128c-14.08 0-25.6-11.52-25.6-25.6z m256 524.8c0 14.08-11.52 25.6-25.6 25.6h-51.2c-14.08 0-25.6-11.52-25.6-25.6v-51.2h102.4v51.2z m512 0c0 14.08-11.52 25.6-25.6 25.6h-51.2c-14.08 0-25.6-11.52-25.6-25.6v-51.2h102.4v51.2z m76.8-102.4H128V179.2c0-70.4 57.6-128 128-128h512c70.4 0 128 57.6 128 128v665.6z m76.8-422.4c0 14.08-11.52 25.6-25.6 25.6V320c14.08 0 25.6 11.52 25.6 25.6v76.8z" p-id="16766"></path></svg>