<?xml version="1.0" standalone="no"?><!DOCTYPE svg PUBLIC "-//W3C//DTD SVG 1.1//EN" "http://www.w3.org/Graphics/SVG/1.1/DTD/svg11.dtd"><svg t="1669297981053" class="icon" viewBox="0 0 1024 1024" version="1.1" xmlns="http://www.w3.org/2000/svg" p-id="35241" xmlns:xlink="http://www.w3.org/1999/xlink" width="200" height="200"><path d="M512 940.416c-14.933333 0-29.44-3.84-42.666667-11.52l-341.76-147.2-1.706666-1.28c-25.173333-15.786667-40.533333-42.666667-40.533334-72.533333v-541.866667c0-37.12 24.746667-69.12 61.866667-79.36l4.266667-1.28H870.4l4.266667 1.28c38.4 10.666667 64 42.666667 64 79.786667v545.706666a85.333333 85.333333 0 0 1-40.106667 72.533334l-2.133333 1.28-2.56 0.853333-339.2 142.08c-13.226667 7.68-27.733333 11.52-42.666667 11.52z m-354.133333-215.466667l340.053333 146.773334 3.413333 1.706666c6.4 3.84 14.933333 3.84 21.333334 0l3.413333-2.133333 1.706667-0.853333 338.346666-141.653334c5.12-3.84 8.533333-10.24 8.533334-17.066666V166.016c0-7.253333-5.12-13.653333-13.653334-16.64H160.853333c-7.253333 2.986667-11.52 8.96-11.52 16.64v541.866667c0 6.826667 2.986667 12.8 8.533334 17.066666z" p-id="35242"></path><path d="M622.933333 376.789333c16.213333-16.213333 36.693333-22.186667 52.906667-5.973333 16.213333 16.213333 7.253333 34.133333-8.96 50.346667l-165.546667 166.4c-6.4 6.4-14.08 10.24-21.76 11.52-13.226667 2.986667-27.733333-0.853333-38.4-11.093334l-82.346666-83.2c-16.213333-16.213333-22.186667-37.12-5.973334-53.333333 16.213333-16.213333 48.213333 7.253333 64.853334 23.466667l53.76 53.76 151.466666-151.893334z" p-id="35243"></path></svg>