<?xml version="1.0" standalone="no"?><!DOCTYPE svg PUBLIC "-//W3C//DTD SVG 1.1//EN" "http://www.w3.org/Graphics/SVG/1.1/DTD/svg11.dtd"><svg t="1669562887703" class="icon" viewBox="0 0 1024 1024" version="1.1" xmlns="http://www.w3.org/2000/svg" p-id="8864" xmlns:xlink="http://www.w3.org/1999/xlink" width="200" height="200"><path d="M292.649866 475.853441L349.203217 695.478105a47.036282 47.036282 0 0 0 23.975693 30.198392l42.643789 217.97748a97.915996 97.915996 0 0 0 192.171582 0l42.643789-217.79446a45.389097 45.389097 0 0 0 23.792672-29.649329L731.350134 475.853441z m281.851653 461.943878a63.691153 63.691153 0 0 1-125.003038 0L409.233959 732.082216h205.532082z m66.802502-249.457015a12.445398 12.445398 0 0 1-12.079356 9.334048H395.507417a13.3605 13.3605 0 0 1-12.994459-10.06613l-45.572118-177.529938h350.301341z" p-id="8865"></path><path d="M739.036997 342.431457a84.738517 84.738517 0 0 0-60.030741-132.323861 70.645934 70.645934 0 0 0 9.151027-21.962466 85.470599 85.470599 0 0 0-3.660411-47.585344 115.302949 115.302949 0 0 0-78.698838-64.789277 179.909205 179.909205 0 0 0-93.157462 0c-23.609651 4.392493-36.604111 6.58874-46.487221-1.098123a53.075961 53.075961 0 0 1-17.020911-42.460768L452.42681 0l-28.368186 14.824665a181.373369 181.373369 0 0 0-84.006435 91.510277l-2.196246 5.490617a91.510277 91.510277 0 0 0 12.445397 85.653619 87.666845 87.666845 0 0 0 10.615193 12.811439H354.693834a84.738517 84.738517 0 0 0-69.730831 132.872922 84.738517 84.738517 0 0 0 15.373726 168.012869h423.143521a84.738517 84.738517 0 0 0 15.556747-168.012869z m30.930474 88.032886v4.026452a46.487221 46.487221 0 0 1-2.379267 8.235925 43.558892 43.558892 0 0 1-12.445398 17.386953 45.938159 45.938159 0 0 1-8.968007 6.222699 48.134406 48.134406 0 0 1-10.066131 4.026452l-6.222698 1.464164H300.336729a46.853262 46.853262 0 0 1-45.938159-54.906166 40.081501 40.081501 0 0 1 4.209473-12.445398 13.17748 13.17748 0 0 1 2.013226-3.47739 36.604111 36.604111 0 0 0 2.196247-3.477391 46.670241 46.670241 0 0 1 4.209472-4.392493 44.657015 44.657015 0 0 1 15.007686-10.249151l4.026452-1.647185 3.843432-1.098123 4.392493-0.915103a42.460769 42.460769 0 0 1 8.418945 0h61.860948a18.302055 18.302055 0 1 0 0-37.885255h-14.641645a50.879714 50.879714 0 0 1-9.151027-2.013226 67.900626 67.900626 0 0 1-8.418946-3.47739 51.245755 51.245755 0 0 1-7.320822-4.941555 47.585344 47.585344 0 0 1-16.47185-44.473995 36.604111 36.604111 0 0 1 1.098123-4.209473 36.604111 36.604111 0 0 1 4.941555-10.981233 50.879714 50.879714 0 0 1 4.758535-6.222699l2.928329-2.928329a43.924933 43.924933 0 0 1 18.302055-10.432171 34.407864 34.407864 0 0 1 8.235925-2.196247h112.008579a18.302055 18.302055 0 1 0 0-36.604111h-14.092583a79.796962 79.796962 0 0 1-11.530294 0 81.810188 81.810188 0 0 1-56.736372-32.394638 59.664701 59.664701 0 0 1-8.052905-54.906166l1.830206-4.392493a73.208222 73.208222 0 0 1 4.941555-10.798213 59.48168 59.48168 0 0 1 4.575514-8.235925A67.717605 67.717605 0 0 1 387.088472 91.510277a62.043968 62.043968 0 0 1 6.039678-7.686863A137.631457 137.631457 0 0 1 416.920822 60.213762h0.915103a11.713315 11.713315 0 0 0 0 1.281144 81.078105 81.078105 0 0 0 11.896336 24.890796l2.928329 4.026452a69.181769 69.181769 0 0 0 10.981233 10.981233c21.962466 18.302055 48.866488 13.3605 75.038427 8.418945a149.344772 149.344772 0 0 1 76.319571 0 86.568722 86.568722 0 0 1 56.919393 44.290975A50.147632 50.147632 0 0 1 654.847542 181.190349a42.460769 42.460769 0 0 1-41.362645 28.917247h-3.111349a36.604111 36.604111 0 0 0 10.981233 26.53798 38.068275 38.068275 0 0 0 26.35496 10.981234h21.962466a46.670241 46.670241 0 0 1 22.145487 5.490616 41.911707 41.911707 0 0 1 7.503843 5.124576 46.3042 46.3042 0 0 1 16.837891 40.447542 40.081501 40.081501 0 0 1 0 4.941555 22.328508 22.328508 0 0 1-1.464164 5.490617 23.792672 23.792672 0 0 1-2.379268 5.490616 50.147632 50.147632 0 0 1-7.137801 10.432172 46.12118 46.12118 0 0 1-12.99446 9.88311 36.604111 36.604111 0 0 1-7.686863 3.29437l-3.843431 1.098123-4.392494 0.915103h-161.607149a18.302055 18.302055 0 1 0 0 37.885255h208.826452a46.853262 46.853262 0 0 1 46.853262 47.036282 38.617337 38.617337 0 0 1-0.366041 5.307596z" p-id="8866"></path><path d="M447.119214 359.818409a18.302055 18.302055 0 0 1-18.302056 18.302056H416.920822a18.302055 18.302055 0 1 1 0-37.519214h10.798213a18.302055 18.302055 0 0 1 19.400179 19.217158zM590.790349 228.958713a18.302055 18.302055 0 0 1-18.302056 18.302056h-10.981233a18.302055 18.302055 0 0 1-18.302056-18.302056 18.302055 18.302055 0 0 1 18.302056-18.302055h10.981233a18.302055 18.302055 0 0 1 18.302056 18.302055z" p-id="8867"></path></svg>