<?xml version="1.0" standalone="no"?><!DOCTYPE svg PUBLIC "-//W3C//DTD SVG 1.1//EN" "http://www.w3.org/Graphics/SVG/1.1/DTD/svg11.dtd"><svg t="1669366721922" class="icon" viewBox="0 0 1024 1024" version="1.1" xmlns="http://www.w3.org/2000/svg" p-id="3182" xmlns:xlink="http://www.w3.org/1999/xlink" width="200" height="200"><path d="M854.2 150.2h-58.7V72H228.4v78.2h-58.7c-21.6 0-39.1 17.5-39.1 39.1V952h762.7V189.3c0-21.6-17.5-39.1-39.1-39.1z m-586.6-39.1h488.9v244.4H267.6V111.1z m-97.8 78.2h58.7v166.2h-58.7V189.3z m684.4 723.6H169.8V394.7h684.4v518.2z m0-557.3h-58.7V189.3h58.7v166.3zM492.4 766.2h39.1v-48.9h97.8v-39.1h-97.8v-39.1h97.8V600h-49.8l40-40-28.5-28.4-68.4 68.4h-21.4l-68.4-68.4-28.4 28.4 40 40h-49.8v39.1h97.8v39.1h-97.8v39.1h97.8v48.9z" p-id="3183"></path></svg>