<?xml version="1.0" standalone="no"?><!DOCTYPE svg PUBLIC "-//W3C//DTD SVG 1.1//EN" "http://www.w3.org/Graphics/SVG/1.1/DTD/svg11.dtd"><svg t="1669563324399" class="icon" viewBox="0 0 1024 1024" version="1.1" xmlns="http://www.w3.org/2000/svg" p-id="40779" xmlns:xlink="http://www.w3.org/1999/xlink" width="200" height="200"><path d="M928 938.666667H96a53.393333 53.393333 0 0 1-53.333333-53.333334V224a53.393333 53.393333 0 0 1 53.333333-53.333333h80a10.713333 10.713333 0 0 0 8.533333-4.266667L229.333333 106.666667a53.58 53.58 0 0 1 42.666667-21.333334h138.666667a53.58 53.58 0 0 1 42.666666 21.333334l44.8 59.733333A10.713333 10.713333 0 0 0 506.666667 170.666667h421.333333a53.393333 53.393333 0 0 1 53.333333 53.333333v661.333333a53.393333 53.393333 0 0 1-53.333333 53.333334zM96 213.333333a10.666667 10.666667 0 0 0-10.666667 10.666667v661.333333a10.666667 10.666667 0 0 0 10.666667 10.666667h832a10.666667 10.666667 0 0 0 10.666667-10.666667V224a10.666667 10.666667 0 0 0-10.666667-10.666667H506.666667a53.58 53.58 0 0 1-42.666667-21.333333l-44.8-59.733333A10.713333 10.713333 0 0 0 410.666667 128H272a10.713333 10.713333 0 0 0-8.533333 4.266667L218.666667 192a53.58 53.58 0 0 1-42.666667 21.333333z m416 512a170.666667 170.666667 0 1 1 120.666667-50 169.553333 169.553333 0 0 1-120.666667 50z m0-298.666666c-70.58 0-128 57.42-128 128s57.42 128 128 128 128-57.42 128-128-57.42-128-128-128z m341.333333-106.666667a21.333333 21.333333 0 0 0-21.333333-21.333333h-85.333333a21.333333 21.333333 0 0 0 0 42.666666h85.333333a21.333333 21.333333 0 0 0 21.333333-21.333333z" fill="#5C5C66" p-id="40780"></path></svg>