<?xml version="1.0" standalone="no"?><!DOCTYPE svg PUBLIC "-//W3C//DTD SVG 1.1//EN" "http://www.w3.org/Graphics/SVG/1.1/DTD/svg11.dtd"><svg t="1669563380764" class="icon" viewBox="0 0 1024 1024" version="1.1" xmlns="http://www.w3.org/2000/svg" p-id="42554" xmlns:xlink="http://www.w3.org/1999/xlink" width="200" height="200"><path d="M275.2 959.9c-54.1 0-108.2-20.6-149.4-61.8C86 858.2 64 805.2 64 748.8c0-56.4 22-109.5 61.9-149.4l473.5-473.5c82.4-82.4 216.4-82.4 298.7 0C938 165.8 960 218.8 960 275.2s-22 109.5-61.9 149.4L424.6 898.1c-41.2 41.2-95.3 61.8-149.4 61.8zM748.8 94.1c-46.4 0-92.8 17.7-128.2 53L147.1 620.6C112.9 654.8 94 700.4 94 748.8s18.9 93.9 53.1 128.2c70.7 70.7 185.6 70.7 256.3 0l473.5-473.5c34.2-34.2 53.1-79.7 53.1-128.2s-18.9-93.9-53.1-128.2c-35.3-35.3-81.7-53-128.1-53z" p-id="42555"></path><path d="M519.8 228.4c-12 0-24.1-4.6-33.2-13.7l-10.3-10.3c-18.3-18.3-18.3-48.1 0-66.5l38-38c8.9-8.9 20.7-13.8 33.2-13.8s24.4 4.9 33.2 13.8l10.3 10.3c8.9 8.9 13.8 20.7 13.8 33.2 0 12.6-4.9 24.4-13.8 33.2l-38 38c-9.1 9.2-21.2 13.8-33.2 13.8z m-12-35c6.6 6.6 17.4 6.6 24 0l38-38c3.2-3.2 5-7.5 5-12s-1.8-8.8-5-12l-10.3-10.3c-3.2-3.2-7.5-5-12-5s-8.8 1.8-12 5l-38 38c-6.6 6.6-6.6 17.4 0 24l10.3 10.3zM852.8 561.4c-12.6 0-24.4-4.9-33.2-13.8l-10.3-10.3c-8.9-8.9-13.8-20.7-13.8-33.2 0-12.6 4.9-24.4 13.8-33.2l38-38c8.9-8.9 20.7-13.8 33.2-13.8s24.4 4.9 33.2 13.8l10.3 10.3c8.9 8.9 13.8 20.7 13.8 33.2 0 12.6-4.9 24.4-13.8 33.2l-38 38c-8.8 9-20.6 13.8-33.2 13.8z m-12-34.9c3.2 3.2 7.5 5 12 5s8.8-1.8 12-5l38-38c3.2-3.2 5-7.5 5-12s-1.8-8.8-5-12l-10.3-10.3c-3.2-3.2-7.5-5-12-5s-8.8 1.8-12 5l-38 38c-3.2 3.2-5 7.5-5 12s1.8 8.8 5 12l10.3 10.3zM143.4 604.8c-12.6 0-24.4-4.9-33.2-13.8l-10.3-10.3c-8.9-8.9-13.8-20.7-13.8-33.2 0-12.6 4.9-24.4 13.8-33.2l38-38c8.9-8.9 20.7-13.8 33.2-13.8s24.4 4.9 33.2 13.8l10.3 10.3c8.9 8.9 13.8 20.7 13.8 33.2 0 12.6-4.9 24.4-13.8 33.2l-38 38c-8.8 8.9-20.6 13.8-33.2 13.8z m-12-35c3.2 3.2 7.5 5 12 5s8.8-1.8 12-5l38-38c3.2-3.2 5-7.5 5-12s-1.8-8.8-5-12l-10.3-10.3c-3.2-3.2-7.5-5-12-5s-8.8 1.8-12 5l-38 38c-3.2 3.2-5 7.5-5 12s1.8 8.8 5 12l10.3 10.3zM476.4 937.8c-12.6 0-24.4-4.9-33.2-13.8L433 913.8c-8.9-8.9-13.8-20.7-13.8-33.2 0-12.6 4.9-24.4 13.8-33.2l38-38c18.3-18.3 48.1-18.3 66.5 0l10.3 10.3c18.3 18.3 18.3 48.1 0 66.5l-38 38c-9 8.7-20.8 13.6-33.4 13.6z m27.8-112.2c-4.4 0-8.7 1.7-12 5l-38 38c-3.2 3.2-5 7.5-5 12s1.8 8.8 5 12l10.3 10.3c3.2 3.2 7.5 5 12 5s8.8-1.8 12-5l38-38c6.6-6.6 6.6-17.4 0-24l-10.3-10.3c-3.3-3.4-7.7-5-12-5z" p-id="42556"></path></svg>